<svg width="21" height="21" viewBox="0 0 21 21" fill="none" xmlns="http://www.w3.org/2000/svg">
<path fill-rule="evenodd" clip-rule="evenodd" d="M5.5 0.5C5.16848 0.5 4.85054 0.631696 4.61612 0.866116C4.3817 1.10054 4.25 1.41848 4.25 1.75V3H3C2.33696 3 1.70107 3.26339 1.23223 3.73223C0.763392 4.20107 0.5 4.83696 0.5 5.5V18C0.5 18.663 0.763392 19.2989 1.23223 19.7678C1.70107 20.2366 2.33696 20.5 3 20.5H18C18.663 20.5 19.2989 20.2366 19.7678 19.7678C20.2366 19.2989 20.5 18.663 20.5 18V5.5C20.5 4.83696 20.2366 4.20107 19.7678 3.73223C19.2989 3.26339 18.663 3 18 3H16.75V1.75C16.75 1.41848 16.6183 1.10054 16.3839 0.866116C16.1495 0.631696 15.8315 0.5 15.5 0.5C15.1685 0.5 14.8505 0.631696 14.6161 0.866116C14.3817 1.10054 14.25 1.41848 14.25 1.75V3H6.75V1.75C6.75 1.41848 6.6183 1.10054 6.38388 0.866116C6.14946 0.631696 5.83152 0.5 5.5 0.5ZM5.5 6.75C5.16848 6.75 4.85054 6.8817 4.61612 7.11612C4.3817 7.35054 4.25 7.66848 4.25 8C4.25 8.33152 4.3817 8.64946 4.61612 8.88388C4.85054 9.1183 5.16848 9.25 5.5 9.25H15.5C15.8315 9.25 16.1495 9.1183 16.3839 8.88388C16.6183 8.64946 16.75 8.33152 16.75 8C16.75 7.66848 16.6183 7.35054 16.3839 7.11612C16.1495 6.8817 15.8315 6.75 15.5 6.75H5.5Z" fill="#ffffff"/>
</svg>
