<svg width="21" height="19" viewBox="0 0 21 19" fill="none" xmlns="http://www.w3.org/2000/svg">
<path fill-rule="evenodd" clip-rule="evenodd" d="M0.5 3.25C0.5 2.58696 0.763392 1.95107 1.23223 1.48223C1.70107 1.01339 2.33696 0.75 3 0.75H18C18.663 0.75 19.2989 1.01339 19.7678 1.48223C20.2366 1.95107 20.5 2.58696 20.5 3.25V5.75C20.5 6.41304 20.2366 7.04893 19.7678 7.51777C19.2989 7.98661 18.663 8.25 18 8.25H3C2.33696 8.25 1.70107 7.98661 1.23223 7.51777C0.763392 7.04893 0.5 6.41304 0.5 5.75V3.25ZM18 4.5C18 4.83152 17.8683 5.14946 17.6339 5.38388C17.3995 5.6183 17.0815 5.75 16.75 5.75C16.4185 5.75 16.1005 5.6183 15.8661 5.38388C15.6317 5.14946 15.5 4.83152 15.5 4.5C15.5 4.16848 15.6317 3.85054 15.8661 3.61612C16.1005 3.3817 16.4185 3.25 16.75 3.25C17.0815 3.25 17.3995 3.3817 17.6339 3.61612C17.8683 3.85054 18 4.16848 18 4.5ZM0.5 13.25C0.5 12.587 0.763392 11.9511 1.23223 11.4822C1.70107 11.0134 2.33696 10.75 3 10.75H18C18.663 10.75 19.2989 11.0134 19.7678 11.4822C20.2366 11.9511 20.5 12.587 20.5 13.25V15.75C20.5 16.413 20.2366 17.0489 19.7678 17.5178C19.2989 17.9866 18.663 18.25 18 18.25H3C2.33696 18.25 1.70107 17.9866 1.23223 17.5178C0.763392 17.0489 0.5 16.413 0.5 15.75V13.25ZM18 14.5C18 14.8315 17.8683 15.1495 17.6339 15.3839C17.3995 15.6183 17.0815 15.75 16.75 15.75C16.4185 15.75 16.1005 15.6183 15.8661 15.3839C15.6317 15.1495 15.5 14.8315 15.5 14.5C15.5 14.1685 15.6317 13.8505 15.8661 13.6161C16.1005 13.3817 16.4185 13.25 16.75 13.25C17.0815 13.25 17.3995 13.3817 17.6339 13.6161C17.8683 13.8505 18 14.1685 18 14.5Z" fill="#ffffff"/>
</svg>
