<svg width="22" height="20" viewBox="0 0 22 20" fill="none" xmlns="http://www.w3.org/2000/svg">
<path d="M9.61458 1.47125C8.19494 0.499869 6.63626 -0.00332088 5.05729 1.64932e-05C3.42318 1.64932e-05 1.8763 0.530685 0.5 1.47125V19.7702C1.91966 18.7988 3.47833 18.2957 5.05729 18.2989C7.23047 18.2989 9.2474 19.2322 10.9167 20.8333C12.6433 19.1777 14.6858 18.2943 16.776 18.2989C18.4102 18.2989 19.957 18.8296 21.3333 19.7702V1.47125C19.9137 0.499869 18.355 -0.00332088 16.776 1.64932e-05C15.1419 1.64932e-05 13.5951 0.530685 12.2188 1.47125V14.6391C12.2188 15.1245 12.0816 15.5899 11.8374 15.9331C11.5932 16.2763 11.262 16.469 10.9167 16.469C10.5713 16.469 10.2401 16.2763 9.99596 15.9331C9.75177 15.5899 9.61458 15.1245 9.61458 14.6391V1.47125Z" fill="#ffffff"/>
</svg>
