<svg width="21" height="19" viewBox="0 0 21 19" fill="none" xmlns="http://www.w3.org/2000/svg">
<path d="M9.45833 5.3335L9.45833 4.29183C9.45833 3.46303 9.78757 2.66817 10.3736 2.08212C10.9597 1.49607 11.7545 1.16683 12.5833 1.16683L16.75 1.16683C17.5788 1.16683 18.3737 1.49607 18.9597 2.08212C19.5458 2.66817 19.875 3.46303 19.875 4.29183L19.875 14.7085C19.875 15.5373 19.5458 16.3322 18.9597 16.9182C18.3737 17.5043 17.5788 17.8335 16.75 17.8335L12.5833 17.8335C11.7545 17.8335 10.9597 17.5043 10.3736 16.9182C9.78757 16.3322 9.45833 15.5373 9.45833 14.7085L9.45833 13.6668M5.29167 5.3335L1.125 9.50017L5.29167 5.3335ZM1.125 9.50017L5.29167 13.6668L1.125 9.50017ZM1.125 9.50017L15.7083 9.50016L1.125 9.50017Z" stroke="white" stroke-width="2" stroke-linecap="round" stroke-linejoin="round"/>
</svg>
