<svg width="21" height="21" viewBox="0 0 21 21" fill="none" xmlns="http://www.w3.org/2000/svg">
<path d="M11.2766 0.866471C11.044 0.632132 10.7287 0.500488 10.3999 0.500488C10.0711 0.500488 9.75573 0.632132 9.5232 0.866471L0.8432 9.61647C0.617324 9.85222 0.492339 10.168 0.495164 10.4957C0.497989 10.8235 0.628399 11.137 0.858305 11.3687C1.08821 11.6005 1.39922 11.732 1.72434 11.7348C2.04947 11.7377 2.36269 11.6117 2.59656 11.384L2.95988 11.0177V19.2502C2.95988 19.5817 3.09052 19.8997 3.32307 20.1341C3.55561 20.3685 3.87101 20.5002 4.19988 20.5002H6.67988C7.00875 20.5002 7.32415 20.3685 7.55669 20.1341C7.78924 19.8997 7.91988 19.5817 7.91988 19.2502V16.7502C7.91988 16.4187 8.05052 16.1008 8.28307 15.8663C8.51561 15.6319 8.83101 15.5002 9.15988 15.5002H11.6399C11.9687 15.5002 12.2841 15.6319 12.5167 15.8663C12.7492 16.1008 12.8799 16.4187 12.8799 16.7502V19.2502C12.8799 19.5817 13.0105 19.8997 13.2431 20.1341C13.4756 20.3685 13.791 20.5002 14.1199 20.5002H16.5999C16.9287 20.5002 17.2441 20.3685 17.4767 20.1341C17.7092 19.8997 17.8399 19.5817 17.8399 19.2502V11.0177L18.2032 11.384C18.4371 11.6117 18.7503 11.7377 19.0754 11.7348C19.4005 11.732 19.7115 11.6005 19.9415 11.3687C20.1714 11.137 20.3018 10.8235 20.3046 10.4957C20.3074 10.168 20.1824 9.85222 19.9566 9.61647L11.2766 0.866471Z" fill="#ffffff"/>
</svg>
