<svg width="21" height="21" viewBox="0 0 21 21" fill="none" xmlns="http://www.w3.org/2000/svg">
<path fill-rule="evenodd" clip-rule="evenodd" d="M20.5 10.5C20.5 13.1522 19.4464 15.6957 17.5711 17.5711C15.6957 19.4464 13.1522 20.5 10.5 20.5C7.84784 20.5 5.3043 19.4464 3.42893 17.5711C1.55357 15.6957 0.5 13.1522 0.5 10.5C0.5 7.84784 1.55357 5.3043 3.42893 3.42893C5.3043 1.55357 7.84784 0.5 10.5 0.5C13.1522 0.5 15.6957 1.55357 17.5711 3.42893C19.4464 5.3043 20.5 7.84784 20.5 10.5ZM10.5 6.75C10.2804 6.74979 10.0646 6.80744 9.87431 6.91716C9.68405 7.02688 9.52606 7.1848 9.41625 7.375C9.33696 7.52235 9.22889 7.65227 9.09845 7.75708C8.96801 7.86188 8.81786 7.93943 8.6569 7.98513C8.49593 8.03082 8.32743 8.04374 8.16138 8.02311C7.99533 8.00248 7.83512 7.94871 7.69023 7.86501C7.54534 7.78131 7.41874 7.66937 7.31791 7.53584C7.21709 7.4023 7.14411 7.24987 7.10329 7.0876C7.06246 6.92533 7.05464 6.75652 7.08027 6.59117C7.1059 6.42582 7.16447 6.2673 7.2525 6.125C7.66527 5.41014 8.30239 4.85145 9.06503 4.53558C9.82768 4.2197 10.6732 4.1643 11.4706 4.37795C12.2679 4.5916 12.9725 5.06237 13.475 5.71725C13.9776 6.37213 14.25 7.17453 14.25 8C14.2502 8.77577 14.0099 9.53253 13.5622 10.1661C13.1145 10.7996 12.4813 11.2787 11.75 11.5375V11.75C11.75 12.0815 11.6183 12.3995 11.3839 12.6339C11.1495 12.8683 10.8315 13 10.5 13C10.1685 13 9.85054 12.8683 9.61612 12.6339C9.3817 12.3995 9.25 12.0815 9.25 11.75V10.5C9.25 10.1685 9.3817 9.85054 9.61612 9.61612C9.85054 9.3817 10.1685 9.25 10.5 9.25C10.8315 9.25 11.1495 9.1183 11.3839 8.88388C11.6183 8.64946 11.75 8.33152 11.75 8C11.75 7.66848 11.6183 7.35054 11.3839 7.11612C11.1495 6.8817 10.8315 6.75 10.5 6.75ZM10.5 16.75C10.8315 16.75 11.1495 16.6183 11.3839 16.3839C11.6183 16.1495 11.75 15.8315 11.75 15.5C11.75 15.1685 11.6183 14.8505 11.3839 14.6161C11.1495 14.3817 10.8315 14.25 10.5 14.25C10.1685 14.25 9.85054 14.3817 9.61612 14.6161C9.3817 14.8505 9.25 15.1685 9.25 15.5C9.25 15.8315 9.3817 16.1495 9.61612 16.3839C9.85054 16.6183 10.1685 16.75 10.5 16.75Z" fill="#ffffff"/>
</svg>
