<svg width="18" height="19" viewBox="0 0 18 19" fill="none" xmlns="http://www.w3.org/2000/svg">
<path d="M1.50761 3.375C1.50761 2.91087 1.68374 2.46575 1.99726 2.13756C2.31077 1.80937 2.73598 1.625 3.17936 1.625H5.92101C6.09638 1.62514 6.26725 1.68301 6.40946 1.79042C6.55167 1.89783 6.65801 2.04934 6.71342 2.2235L7.96556 6.15488C8.029 6.35467 8.0215 6.57172 7.94442 6.76619C7.86735 6.96066 7.72587 7.11952 7.54595 7.21363L5.65939 8.20238C6.58413 10.3448 8.22339 12.0608 10.2701 13.0289L11.2146 11.054C11.3045 10.8657 11.4562 10.7176 11.642 10.6369C11.8278 10.5562 12.0351 10.5483 12.226 10.6148L15.9816 11.9255C16.1481 11.9836 16.2929 12.095 16.3955 12.244C16.4981 12.3931 16.5533 12.5722 16.5533 12.7559V15.625C16.5533 16.0891 16.3772 16.5342 16.0637 16.8624C15.7501 17.1906 15.3249 17.375 14.8816 17.375H14.0457C7.12133 17.375 1.50761 11.4985 1.50761 4.25V3.375Z" stroke="#626262" stroke-width="2" stroke-linecap="round" stroke-linejoin="round"/>
</svg>
