<svg width="19" height="22" viewBox="0 0 19 22" fill="none" xmlns="http://www.w3.org/2000/svg">
<path d="M13.8334 5.41057C13.8334 6.58032 13.3417 7.70217 12.4665 8.52931C11.5914 9.35645 10.4044 9.82113 9.16669 9.82113C7.92901 9.82113 6.74202 9.35645 5.86685 8.52931C4.99168 7.70217 4.50001 6.58032 4.50001 5.41057C4.50001 4.24081 4.99168 3.11897 5.86685 2.29182C6.74202 1.46468 7.92901 1 9.16669 1C10.4044 1 11.5914 1.46468 12.4665 2.29182C13.3417 3.11897 13.8334 4.24081 13.8334 5.41057ZM9.16669 13.1291C7.00075 13.1291 4.92352 13.9423 3.39197 15.3898C1.86042 16.8372 1 18.8005 1 20.8475H17.3334C17.3334 18.8005 16.473 16.8372 14.9414 15.3898C13.4099 13.9423 11.3326 13.1291 9.16669 13.1291Z" stroke="#B5B5B5" stroke-width="2" stroke-linecap="round" stroke-linejoin="round"/>
</svg>
