<svg width="17" height="17" viewBox="0 0 17 17" fill="none" xmlns="http://www.w3.org/2000/svg">
<path d="M1.70255 5.00139L8.49999 8.39969L15.2974 5.00139C15.2723 4.56827 15.0825 4.16116 14.7669 3.86344C14.4513 3.56571 14.0338 3.39991 13.6 3.39999H3.4C2.96614 3.39991 2.54868 3.56571 2.2331 3.86344C1.91752 4.16116 1.72771 4.56827 1.70255 5.00139Z" fill="#626262"/>
<path d="M15.3 6.9003L8.5 10.3003L1.7 6.9003V11.9C1.7 12.3509 1.8791 12.7833 2.19792 13.1021C2.51673 13.4209 2.94913 13.6 3.4 13.6H13.6C14.0509 13.6 14.4833 13.4209 14.8021 13.1021C15.1209 12.7833 15.3 12.3509 15.3 11.9V6.9003Z" fill="#626262"/>
</svg>
