<svg width="21" height="21" viewBox="0 0 21 21" fill="none" xmlns="http://www.w3.org/2000/svg">
<path fill-rule="evenodd" clip-rule="evenodd" d="M12.3627 1.9625C11.8877 0.0125 9.11268 0.0125 8.63768 1.9625C8.56676 2.25552 8.42766 2.52766 8.2317 2.75676C8.03575 2.98587 7.78846 3.16548 7.50998 3.28096C7.2315 3.39645 6.92968 3.44455 6.6291 3.42136C6.32851 3.39817 6.03765 3.30434 5.78018 3.1475C4.06518 2.1025 2.10268 4.065 3.14768 5.78C3.82268 6.8875 3.22393 8.3325 1.96393 8.63875C0.0126759 9.1125 0.0126759 11.8888 1.96393 12.3612C2.25702 12.4323 2.52921 12.5715 2.75831 12.7676C2.98742 12.9637 3.16697 13.2111 3.28235 13.4898C3.39773 13.7684 3.44566 14.0704 3.42226 14.371C3.39886 14.6717 3.30478 14.9626 3.14768 15.22C2.10268 16.935 4.06518 18.8975 5.78018 17.8525C6.0376 17.6954 6.32849 17.6013 6.62916 17.5779C6.92982 17.5545 7.23177 17.6024 7.5104 17.7178C7.78903 17.8332 8.03648 18.0128 8.23259 18.2419C8.42869 18.471 8.56792 18.7432 8.63892 19.0363C9.11267 20.9875 11.8889 20.9875 12.3614 19.0363C12.4327 18.7433 12.572 18.4713 12.7682 18.2424C12.9643 18.0134 13.2117 17.834 13.4903 17.7186C13.7688 17.6033 14.0707 17.5553 14.3712 17.5786C14.6718 17.6018 14.9627 17.6957 15.2202 17.8525C16.9352 18.8975 18.8977 16.935 17.8527 15.22C17.6959 14.9625 17.602 14.6717 17.5787 14.3711C17.5555 14.0705 17.6035 13.7687 17.7188 13.4901C17.8341 13.2116 18.0136 12.9642 18.2425 12.768C18.4715 12.5719 18.7435 12.4325 19.0364 12.3612C20.9877 11.8875 20.9877 9.11125 19.0364 8.63875C18.7433 8.56774 18.4711 8.42852 18.242 8.23241C18.0129 8.0363 17.8334 7.78886 17.718 7.51022C17.6026 7.23159 17.5547 6.92965 17.5781 6.62898C17.6015 6.32831 17.6956 6.03742 17.8527 5.78C18.8977 4.065 16.9352 2.1025 15.2202 3.1475C14.9628 3.3046 14.6719 3.39868 14.3712 3.42209C14.0705 3.44549 13.7686 3.39755 13.49 3.28217C13.2113 3.1668 12.9639 2.98725 12.7678 2.75814C12.5717 2.52903 12.4324 2.25685 12.3614 1.96375L12.3627 1.9625ZM10.5002 14.25C11.4947 14.25 12.4486 13.8549 13.1518 13.1517C13.8551 12.4484 14.2502 11.4946 14.2502 10.5C14.2502 9.50544 13.8551 8.55161 13.1518 7.84835C12.4486 7.14509 11.4947 6.75 10.5002 6.75C9.50561 6.75 8.55179 7.14509 7.84853 7.84835C7.14526 8.55161 6.75018 9.50544 6.75018 10.5C6.75018 11.4946 7.14526 12.4484 7.84853 13.1517C8.55179 13.8549 9.50561 14.25 10.5002 14.25Z" fill="#ffffff"/>
</svg>
