<svg width="21" height="26" viewBox="0 0 21 26" fill="none" xmlns="http://www.w3.org/2000/svg">
<path fill-rule="evenodd" clip-rule="evenodd" d="M10.8079 20.4192C10.611 20.1754 10.5004 19.8448 10.5004 19.5001C10.5004 19.1553 10.611 18.8247 10.8079 18.581L15.3155 13.0001L10.8079 7.41916C10.7076 7.29924 10.6276 7.15579 10.5726 6.99718C10.5175 6.83858 10.4886 6.66799 10.4873 6.49538C10.4861 6.32277 10.5127 6.15158 10.5655 5.99182C10.6183 5.83205 10.6963 5.6869 10.7948 5.56484C10.8934 5.44278 11.0107 5.34625 11.1397 5.28089C11.2687 5.21552 11.407 5.18263 11.5464 5.18413C11.6858 5.18563 11.8236 5.22149 11.9517 5.28962C12.0798 5.35776 12.1957 5.45679 12.2926 5.58096L17.5426 12.081C17.7394 12.3247 17.85 12.6553 17.85 13.0001C17.85 13.3448 17.7394 13.6754 17.5426 13.9192L12.2926 20.4192C12.0957 20.6629 11.8286 20.7998 11.5502 20.7998C11.2718 20.7998 11.0048 20.6629 10.8079 20.4192Z" fill="#ffffff"/>
<path fill-rule="evenodd" clip-rule="evenodd" d="M4.50762 20.4189C4.31078 20.1752 4.2002 19.8446 4.2002 19.4998C4.2002 19.1551 4.31078 18.8245 4.50762 18.5807L9.01527 12.9998L4.50762 7.41895C4.31636 7.17376 4.21052 6.84538 4.21291 6.50452C4.21531 6.16367 4.32573 5.83761 4.52041 5.59658C4.71509 5.35555 4.97844 5.21883 5.25375 5.21587C5.52906 5.21291 5.79429 5.34394 5.99232 5.58075L11.2423 12.0807C11.4392 12.3245 11.5497 12.6551 11.5497 12.9998C11.5497 13.3446 11.4392 13.6752 11.2423 13.9189L5.99232 20.4189C5.79542 20.6627 5.52839 20.7996 5.24997 20.7996C4.97155 20.7996 4.70453 20.6627 4.50762 20.4189Z" fill="#ffffff"/>
</svg>
