<svg width="16" height="17" viewBox="0 0 16 17" fill="none" xmlns="http://www.w3.org/2000/svg">
<path d="M8.04655 0.100098C6.37569 0.100098 4.77326 0.763846 3.59178 1.94532C2.4103 3.1268 1.74655 4.72923 1.74655 6.4001V10.1654L1.0042 10.9077C0.857404 11.0546 0.757437 11.2417 0.716941 11.4453C0.676445 11.649 0.697238 11.86 0.776692 12.0519C0.856145 12.2437 0.990692 12.4077 1.16332 12.5231C1.33595 12.6384 1.53892 12.7001 1.74655 12.7001H14.3466C14.5542 12.7001 14.7572 12.6384 14.9298 12.5231C15.1024 12.4077 15.237 12.2437 15.3164 12.0519C15.3959 11.86 15.4167 11.649 15.3762 11.4453C15.3357 11.2417 15.2357 11.0546 15.0889 10.9077L14.3466 10.1654V6.4001C14.3466 4.72923 13.6828 3.1268 12.5013 1.94532C11.3198 0.763846 9.71742 0.100098 8.04655 0.100098ZM8.04655 16.9001C7.21112 16.9001 6.40991 16.5682 5.81917 15.9775C5.22843 15.3867 4.89655 14.5855 4.89655 13.7501H11.1966C11.1966 14.5855 10.8647 15.3867 10.2739 15.9775C9.6832 16.5682 8.88199 16.9001 8.04655 16.9001Z" fill="#B5B5B5"/>
</svg>
