<svg width="12" height="12" viewBox="0 0 12 12" fill="none" xmlns="http://www.w3.org/2000/svg">
<path d="M10.5 10.5L7.5 7.5L10.5 10.5ZM8.5 5C8.5 5.45963 8.40947 5.91475 8.23358 6.33939C8.05769 6.76403 7.79988 7.14987 7.47487 7.47487C7.14987 7.79988 6.76403 8.05769 6.33939 8.23358C5.91475 8.40947 5.45963 8.5 5 8.5C4.54037 8.5 4.08525 8.40947 3.66061 8.23358C3.23597 8.05769 2.85013 7.79988 2.52513 7.47487C2.20012 7.14987 1.94231 6.76403 1.76642 6.33939C1.59053 5.91475 1.5 5.45963 1.5 5C1.5 4.07174 1.86875 3.1815 2.52513 2.52513C3.1815 1.86875 4.07174 1.5 5 1.5C5.92826 1.5 6.8185 1.86875 7.47487 2.52513C8.13125 3.1815 8.5 4.07174 8.5 5Z" stroke="#B5B5B5" stroke-width="2" stroke-linecap="round" stroke-linejoin="round"/>
</svg>
